<?xml version="1.0" encoding="UTF-8" standalone="no"?>
<svg
   id="Capa_1"
   data-name="Capa 1"
   viewBox="0 0 148.29 113.51"
   version="1.1"
   sodipodi:docname="govt_icon.svg"
   inkscape:version="1.1 (c68e22c387, 2021-05-23)"
   xmlns:inkscape="http://www.inkscape.org/namespaces/inkscape"
   xmlns:sodipodi="http://sodipodi.sourceforge.net/DTD/sodipodi-0.dtd"
   xmlns="http://www.w3.org/2000/svg"
   xmlns:svg="http://www.w3.org/2000/svg">
  <sodipodi:namedview
     id="namedview37"
     pagecolor="#ffffff"
     bordercolor="#666666"
     borderopacity="1.0"
     inkscape:pageshadow="2"
     inkscape:pageopacity="0.0"
     inkscape:pagecheckerboard="0"
     showgrid="false"
     inkscape:zoom="4.4048982"
     inkscape:cx="74.122031"
     inkscape:cy="56.641491"
     inkscape:window-width="1920"
     inkscape:window-height="1043"
     inkscape:window-x="1920"
     inkscape:window-y="0"
     inkscape:window-maximized="1"
     inkscape:current-layer="Capa_1" />
  <defs
     id="defs4">
    <style
       id="style2">.cls-1{fill:#ed8d03;}.cls-2{fill:#ec8d02;}.cls-3{fill:#fbd9b1;}</style>
  </defs>
  <title
     id="title6">icono govt</title>
  <path
     class="cls-1"
     d="M5.8,106.19H142.48A3.51,3.51,0,0,1,146,109.7v3.81a0,0,0,0,1,0,0H2.3a0,0,0,0,1,0,0v-3.82A3.5,3.5,0,0,1,5.8,106.19Z"
     id="path8"
     style="fill:#727172;fill-opacity:1" />
  <path
     class="cls-2"
     d="M14.48,98.14H133.82a2,2,0,0,1,2,2v2.91a0,0,0,0,1,0,0H12.47a0,0,0,0,1,0,0v-2.91A2,2,0,0,1,14.48,98.14Z"
     id="path10"
     style="fill:#727172;fill-opacity:1" />
  <path
     class="cls-2"
     d="M14.48,33.81H133.82a2,2,0,0,1,2,2v2.91a0,0,0,0,1,0,0H12.47a0,0,0,0,1,0,0V35.83A2,2,0,0,1,14.48,33.81Z"
     transform="translate(148.29 72.55) rotate(180)"
     id="path12"
     style="fill:#727172;fill-opacity:1" />
  <path
     class="cls-2"
     d="M143.34,30.94H5a5,5,0,0,1-5-5V21.09L73.82,0l74.47,21.09V26A5,5,0,0,1,143.34,30.94Z"
     id="path14"
     style="fill:#727172;fill-opacity:1" />
  <path
     class="cls-2"
     d="M75.61,55.91H90.87a5.55,5.55,0,0,1,5.55,5.55V93.64a.42.42,0,0,1-.42.42H75.61a.42.42,0,0,1-.42-.42V56.33A.42.42,0,0,1,75.61,55.91Z"
     id="path16"
     style="fill:#727172;fill-opacity:1" />
  <path
     class="cls-3"
     d="M75.19,42.2V55.91H90.92a5.5,5.5,0,0,1,5.5,5.5V42.2Z"
     id="path18"
     style="fill:#cccccc" />
  <path
     class="cls-3"
     d="M18.86,42.2V78.55H34.37a5.72,5.72,0,0,1,5.72,5.72V42.2Z"
     id="path20"
     style="fill:#cccccc" />
  <path
     class="cls-2"
     d="M18.86,78.55H34.37a5.72,5.72,0,0,1,5.72,5.72v9.8a0,0,0,0,1,0,0H18.86a0,0,0,0,1,0,0V78.55A0,0,0,0,1,18.86,78.55Z"
     id="path22"
     style="fill:#727172;fill-opacity:1" />
  <path
     class="cls-3"
     d="M47,85.91v.4h0C47,86.17,47,86,47,85.91Z"
     id="path24" />
  <path
     class="cls-3"
     d="M47,42.2V63.79H61.54a6.7,6.7,0,0,1,6.71,6.71V42.2Z"
     id="path26"
     style="fill:#cccccc" />
  <path
     class="cls-2"
     d="M47,63.79H61.54a6.71,6.71,0,0,1,6.71,6.71V94.06a0,0,0,0,1,0,0H47a0,0,0,0,1,0,0V63.79A0,0,0,0,1,47,63.79Z"
     id="path28"
     style="fill:#727172;fill-opacity:1" />
  <path
     class="cls-3"
     d="M103.36,42.2v3.87h14.26a7,7,0,0,1,7,7V42.2Z"
     id="path30"
     style="fill:#cccccc" />
  <path
     class="cls-3"
     d="M103.36,85.58v.73h0C103.38,86.07,103.36,85.83,103.36,85.58Z"
     id="path32" />
  <path
     class="cls-2"
     d="M103.36,46.07h14.27a7,7,0,0,1,7,7v41a0,0,0,0,1,0,0H103.36a0,0,0,0,1,0,0v-48A0,0,0,0,1,103.36,46.07Z"
     id="path34"
     style="fill:#727172;fill-opacity:1" />
</svg>
