<svg xmlns="http://www.w3.org/2000/svg" xmlns:xlink="http://www.w3.org/1999/xlink" viewBox="0 0 450 400.54"><defs><style>.cls-1{isolation:isolate;}.cls-2{fill:#ed8d03;}.cls-3{fill:#727172;}.cls-4{fill:#fff;}.cls-10,.cls-5,.cls-6,.cls-7,.cls-8,.cls-9{opacity:0.47;mix-blend-mode:overlay;}.cls-5{fill:url(#Degradado_sin_nombre_15);}.cls-6{fill:url(#Degradado_sin_nombre_15-2);}.cls-7{fill:url(#Degradado_sin_nombre_15-3);}.cls-8{fill:url(#Degradado_sin_nombre_15-4);}.cls-9{fill:url(#Degradado_sin_nombre_15-5);}.cls-10{fill:url(#Degradado_sin_nombre_15-6);}</style><linearGradient id="Degradado_sin_nombre_15" x1="51.26" y1="223.32" x2="50.95" y2="194.12" gradientUnits="userSpaceOnUse"><stop offset="0" stop-color="#fff"/><stop offset="1" stop-color="#727172"/></linearGradient><linearGradient id="Degradado_sin_nombre_15-2" x1="80.53" y1="231.63" x2="80.44" y2="223.01" xlink:href="#Degradado_sin_nombre_15"/><linearGradient id="Degradado_sin_nombre_15-3" x1="165.64" y1="243.13" x2="165.25" y2="205.51" xlink:href="#Degradado_sin_nombre_15"/><linearGradient id="Degradado_sin_nombre_15-4" x1="254.62" y1="242.46" x2="254.23" y2="205.01" xlink:href="#Degradado_sin_nombre_15"/><linearGradient id="Degradado_sin_nombre_15-5" x1="307.54" y1="241.05" x2="307.16" y2="204.3" xlink:href="#Degradado_sin_nombre_15"/><linearGradient id="Degradado_sin_nombre_15-6" x1="399.97" y1="229.46" x2="399.64" y2="197.45" xlink:href="#Degradado_sin_nombre_15"/></defs><title>logotipo gotv app</title><g class="cls-1"><g id="Capa_1" data-name="Capa 1"><path class="cls-2" d="M10.31,287.41H443.89a0,0,0,0,1,0,0v32a18.3,18.3,0,0,1-18.3,18.3h-397a18.3,18.3,0,0,1-18.3-18.3v-32A0,0,0,0,1,10.31,287.41Z"/><path class="cls-3" d="M36.47,354.88v8.59H34.89V359H25.36v4.46H23.8v-8.59c0-4.44,2.51-6.69,6.33-6.69S36.47,350.44,36.47,354.88Zm-1.58,2.75v-2.9c0-3.45-1.82-5.11-4.76-5.11s-4.77,1.66-4.77,5.11v2.9Z"/><path class="cls-3" d="M50.57,356.87v6.6H49V357c0-2.4-1.25-3.64-3.42-3.64-2.45,0-4,1.52-4,4.12v6H40.09V352.08h1.47v2.1A4.79,4.79,0,0,1,45.89,352C48.66,352,50.57,353.6,50.57,356.87Z"/><path class="cls-3" d="M64.32,352.08v11.39H62.85v-2.25a4.94,4.94,0,0,1-4.4,2.36,5.79,5.79,0,0,1,0-11.58,5,5,0,0,1,4.33,2.25v-2.17Zm-1.52,5.7a4.23,4.23,0,1,0-4.22,4.44A4.17,4.17,0,0,0,62.8,357.78ZM59,350.33H57.5l3-2.69h2.05Z"/><path class="cls-3" d="M67.74,360.31v-12.9h1.54v12.77c0,1.35.63,2.08,1.9,2.08a2.61,2.61,0,0,0,1-.19l.11,1.27a4.09,4.09,0,0,1-1.38.24A3,3,0,0,1,67.74,360.31Z"/><path class="cls-3" d="M73.22,348.49a1.11,1.11,0,0,1,1.13-1.08,1.09,1.09,0,1,1,0,2.18A1.11,1.11,0,0,1,73.22,348.49Zm.35,3.59H75.1v11.39H73.57Z"/><path class="cls-3" d="M77,362.18l.69-1.22a6.85,6.85,0,0,0,4,1.28c2.16,0,3-.74,3-1.86,0-3-7.38-.63-7.38-5.13,0-1.87,1.6-3.25,4.5-3.25a7.72,7.72,0,0,1,4,1.06l-.67,1.23a5.87,5.87,0,0,0-3.36-1c-2.06,0-3,.8-3,1.88,0,3.08,7.39.76,7.39,5.13,0,2-1.73,3.25-4.7,3.25A7.61,7.61,0,0,1,77,362.18Z"/><path class="cls-3" d="M87.9,348.49A1.11,1.11,0,0,1,89,347.41a1.09,1.09,0,0,1,1.13,1.06,1.13,1.13,0,0,1-2.26,0Zm.35,3.59h1.54v11.39H88.25Z"/><path class="cls-3" d="M91.63,362.18l.69-1.22a6.85,6.85,0,0,0,4.05,1.28c2.17,0,3-.74,3-1.86,0-3-7.38-.63-7.38-5.13,0-1.87,1.6-3.25,4.5-3.25a7.72,7.72,0,0,1,4,1.06l-.67,1.23a5.87,5.87,0,0,0-3.36-1c-2.05,0-3,.8-3,1.88,0,3.08,7.38.76,7.38,5.13,0,2-1.73,3.25-4.7,3.25A7.61,7.61,0,0,1,91.63,362.18Z"/><path class="cls-3" d="M118.13,347.41v16.06h-1.47v-2.25a4.92,4.92,0,0,1-4.39,2.36,5.79,5.79,0,0,1,0-11.58,5,5,0,0,1,4.33,2.25v-6.84Zm-1.51,10.37a4.24,4.24,0,1,0-4.22,4.44A4.17,4.17,0,0,0,116.62,357.78Z"/><path class="cls-3" d="M129.92,360.72l.86,1a5.57,5.57,0,0,1-4.37,1.86,5.66,5.66,0,0,1-6-5.8A5.5,5.5,0,0,1,126,352a5.37,5.37,0,0,1,5.46,5.43l-9.36,1.82a4.23,4.23,0,0,0,4.29,3A4.43,4.43,0,0,0,129.92,360.72Zm-8-3.05a3.7,3.7,0,0,0,0,.48l8-1.56a3.87,3.87,0,0,0-3.92-3.27A4.06,4.06,0,0,0,121.9,357.67Z"/><path class="cls-3" d="M149,347.41v16.06H147.5v-2.25a4.93,4.93,0,0,1-4.4,2.36,5.79,5.79,0,0,1,0-11.58,5,5,0,0,1,4.33,2.25v-6.84Zm-1.51,10.37a4.24,4.24,0,1,0-4.23,4.44A4.17,4.17,0,0,0,147.46,357.78Z"/><path class="cls-3" d="M162.79,352.08v11.39h-1.47v-2.25a5,5,0,0,1-4.4,2.36,5.79,5.79,0,0,1,0-11.58,5,5,0,0,1,4.33,2.25v-2.17Zm-1.52,5.7a4.24,4.24,0,1,0-4.22,4.44A4.17,4.17,0,0,0,161.27,357.78Z"/><path class="cls-3" d="M171.82,362.78a3.59,3.59,0,0,1-2.38.8,3,3,0,0,1-3.34-3.31V349.59h1.54v2.49h3.44v1.3h-3.44v6.8c0,1.35.67,2.08,2,2.08a2.5,2.5,0,0,0,1.69-.58Z"/><path class="cls-3" d="M172.19,357.78a5.79,5.79,0,1,1,5.8,5.8A5.6,5.6,0,0,1,172.19,357.78Zm10,0a4.23,4.23,0,1,0-4.22,4.44A4.15,4.15,0,0,0,182.21,357.78Z"/><path class="cls-3" d="M184.47,362.18l.69-1.22a6.85,6.85,0,0,0,4.05,1.28c2.17,0,3-.74,3-1.86,0-3-7.38-.63-7.38-5.13,0-1.87,1.6-3.25,4.5-3.25a7.72,7.72,0,0,1,4,1.06l-.67,1.23a5.87,5.87,0,0,0-3.36-1c-2,0-3,.8-3,1.88,0,3.08,7.38.76,7.38,5.13,0,2-1.73,3.25-4.7,3.25A7.61,7.61,0,0,1,184.47,362.18Z"/><path class="cls-3" d="M210.84,352.08v10c0,3.92-1.79,5.69-5.3,5.69a7.12,7.12,0,0,1-5-1.75l.78-1.17a5.78,5.78,0,0,0,4.13,1.56c2.65,0,3.84-1.32,3.84-4.14V361a4.55,4.55,0,0,1-4,2.08c-2.9,0-4.81-1.62-4.81-4.89v-6.07H202V358c0,2.42,1.25,3.66,3.42,3.66,2.38,0,3.88-1.54,3.88-4.14v-5.44Z"/><path class="cls-3" d="M217.51,362.18l.7-1.22a6.83,6.83,0,0,0,4,1.28c2.16,0,3.05-.74,3.05-1.86,0-3-7.39-.63-7.39-5.13,0-1.87,1.61-3.25,4.51-3.25a7.75,7.75,0,0,1,4,1.06l-.67,1.23a5.87,5.87,0,0,0-3.36-1c-2.06,0-3,.8-3,1.88,0,3.08,7.39.76,7.39,5.13,0,2-1.73,3.25-4.7,3.25A7.62,7.62,0,0,1,217.51,362.18Z"/><path class="cls-3" d="M237.18,360.72l.86,1a5.57,5.57,0,0,1-4.37,1.86,5.66,5.66,0,0,1-6-5.8A5.5,5.5,0,0,1,233.3,352a5.37,5.37,0,0,1,5.46,5.43l-9.36,1.82a4.23,4.23,0,0,0,4.29,3A4.43,4.43,0,0,0,237.18,360.72Zm-8-3.05a3.7,3.7,0,0,0,0,.48l8-1.56a3.87,3.87,0,0,0-3.92-3.27A4.06,4.06,0,0,0,229.16,357.67Z"/><path class="cls-3" d="M246.77,352v1.49l-.37,0c-2.38,0-3.83,1.52-3.83,4.2v5.8H241V352.08h1.47v2.23C243.22,352.8,244.67,352,246.77,352Z"/><path class="cls-3" d="M258.75,352.08l-5.07,11.39H252.1l-5-11.39h1.6l4.27,9.7,4.31-9.7Z"/><path class="cls-3" d="M259.7,348.49a1.1,1.1,0,0,1,1.12-1.08,1.09,1.09,0,0,1,1.13,1.06,1.13,1.13,0,0,1-2.25,0Zm.34,3.59h1.54v11.39H260Z"/><path class="cls-3" d="M263.86,357.78a5.6,5.6,0,0,1,5.87-5.78,5,5,0,0,1,4.46,2.25L273,355a3.86,3.86,0,0,0-3.31-1.69,4.44,4.44,0,0,0,0,8.88,3.85,3.85,0,0,0,3.31-1.67l1.15.78a5,5,0,0,1-4.46,2.25A5.62,5.62,0,0,1,263.86,357.78Z"/><path class="cls-3" d="M276,348.49a1.11,1.11,0,0,1,1.13-1.08,1.09,1.09,0,0,1,1.13,1.06,1.13,1.13,0,0,1-2.26,0Zm.35,3.59h1.54v11.39h-1.54Z"/><path class="cls-3" d="M280.14,357.78a5.8,5.8,0,1,1,5.81,5.8A5.6,5.6,0,0,1,280.14,357.78Zm10,0a4.24,4.24,0,1,0-4.22,4.44A4.16,4.16,0,0,0,290.17,357.78Z"/><path class="cls-3" d="M292.42,362.18l.69-1.22a6.85,6.85,0,0,0,4.05,1.28c2.17,0,3.06-.74,3.06-1.86,0-3-7.39-.63-7.39-5.13,0-1.87,1.61-3.25,4.51-3.25a7.75,7.75,0,0,1,4,1.06l-.68,1.23a5.82,5.82,0,0,0-3.35-1c-2.06,0-3,.8-3,1.88,0,3.08,7.38.76,7.38,5.13,0,2-1.73,3.25-4.7,3.25A7.61,7.61,0,0,1,292.42,362.18Z"/><path class="cls-3" d="M308.19,348.49a1.13,1.13,0,1,1,1.12,1.1A1.1,1.1,0,0,1,308.19,348.49Zm.34,3.59h1.54v11.39h-1.54Z"/><path class="cls-3" d="M324,356.87v6.6h-1.53V357c0-2.4-1.26-3.64-3.43-3.64-2.44,0-4,1.52-4,4.12v6h-1.54V352.08H315v2.1A4.81,4.81,0,0,1,319.3,352C322.07,352,324,353.6,324,356.87Z"/><path class="cls-3" d="M332.9,362.78a3.6,3.6,0,0,1-2.39.8,3,3,0,0,1-3.33-3.31V349.59h1.53v2.49h3.45v1.3h-3.45v6.8a1.81,1.81,0,0,0,2,2.08,2.49,2.49,0,0,0,1.68-.58Z"/><path class="cls-3" d="M342.77,360.72l.87,1a5.58,5.58,0,0,1-4.38,1.86,5.66,5.66,0,0,1-6-5.8,5.5,5.5,0,0,1,5.63-5.78,5.36,5.36,0,0,1,5.46,5.43L335,359.25a4.21,4.21,0,0,0,4.28,3A4.43,4.43,0,0,0,342.77,360.72Zm-8-3.05a3.7,3.7,0,0,0,0,.48l8-1.56a3.86,3.86,0,0,0-3.92-3.27A4.06,4.06,0,0,0,334.76,357.67Z"/><path class="cls-3" d="M346.62,360.31v-12.9h1.54v12.77c0,1.35.63,2.08,1.91,2.08a2.68,2.68,0,0,0,1-.19l.11,1.27a4.15,4.15,0,0,1-1.39.24A3,3,0,0,1,346.62,360.31Z"/><path class="cls-3" d="M352.1,348.49a1.11,1.11,0,0,1,1.13-1.08,1.09,1.09,0,0,1,1.13,1.06,1.13,1.13,0,0,1-2.26,0Zm.35,3.59H354v11.39h-1.54Z"/><path class="cls-3" d="M368,352.08v10c0,3.92-1.93,5.69-5.7,5.69A7.9,7.9,0,0,1,357,366l.77-1.17a6.77,6.77,0,0,0,4.49,1.56c2.88,0,4.2-1.32,4.2-4.14v-1.45A5.13,5.13,0,0,1,362,363a5.52,5.52,0,1,1,0-11,5.13,5.13,0,0,1,4.5,2.27v-2.19Zm-1.5,5.42a4.32,4.32,0,1,0-4.33,4.18A4.07,4.07,0,0,0,366.46,357.5Z"/><path class="cls-3" d="M379.76,360.72l.86,1a5.54,5.54,0,0,1-4.37,1.86,5.66,5.66,0,0,1-6-5.8,5.5,5.5,0,0,1,5.63-5.78,5.36,5.36,0,0,1,5.46,5.43L372,359.25a4.23,4.23,0,0,0,4.29,3A4.43,4.43,0,0,0,379.76,360.72Zm-8-3.05a3.7,3.7,0,0,0,0,.48l8-1.56a3.86,3.86,0,0,0-3.92-3.27A4.06,4.06,0,0,0,371.75,357.67Z"/><path class="cls-3" d="M394.09,356.87v6.6h-1.53V357c0-2.4-1.26-3.64-3.42-3.64-2.45,0-4,1.52-4,4.12v6h-1.54V352.08h1.47v2.1a4.82,4.82,0,0,1,4.34-2.18C392.19,352,394.09,353.6,394.09,356.87Z"/><path class="cls-3" d="M403,362.78a3.6,3.6,0,0,1-2.39.8,3,3,0,0,1-3.33-3.31V349.59h1.54v2.49h3.44v1.3h-3.44v6.8c0,1.35.67,2.08,2,2.08a2.51,2.51,0,0,0,1.69-.58Z"/><path class="cls-3" d="M412.89,360.72l.87,1a5.58,5.58,0,0,1-4.38,1.86,5.65,5.65,0,0,1-6-5.8A5.5,5.5,0,0,1,409,352a5.36,5.36,0,0,1,5.46,5.43l-9.35,1.82a4.22,4.22,0,0,0,4.29,3A4.41,4.41,0,0,0,412.89,360.72Zm-8-3.05a3.7,3.7,0,0,0,0,.48l8-1.56a3.85,3.85,0,0,0-3.92-3.27A4.06,4.06,0,0,0,404.88,357.67Z"/><path class="cls-3" d="M415.16,362.18l.7-1.22a6.83,6.83,0,0,0,4.05,1.28c2.16,0,3-.74,3-1.86,0-3-7.38-.63-7.38-5.13,0-1.87,1.6-3.25,4.5-3.25a7.72,7.72,0,0,1,4,1.06l-.67,1.23a5.87,5.87,0,0,0-3.36-1c-2.06,0-3,.8-3,1.88,0,3.08,7.39.76,7.39,5.13,0,2-1.73,3.25-4.7,3.25A7.67,7.67,0,0,1,415.16,362.18Z"/><path class="cls-3" d="M129.9,379.74a5.51,5.51,0,0,1-5.67,5.8,5,5,0,0,1-4.33-2.25v6.34h-1.54V374h1.47v2.25a5,5,0,0,1,4.4-2.33A5.5,5.5,0,0,1,129.9,379.74Zm-1.53,0a4.25,4.25,0,1,0-4.25,4.44A4.2,4.2,0,0,0,128.37,379.74Z"/><path class="cls-3" d="M142.57,374v11.39H141.1v-2.25a4.93,4.93,0,0,1-4.4,2.36,5.79,5.79,0,0,1,0-11.58,5,5,0,0,1,4.34,2.25V374Zm-1.51,5.7a4.24,4.24,0,1,0-4.23,4.44A4.16,4.16,0,0,0,141.06,379.74Z"/><path class="cls-3" d="M151.73,374v1.49l-.36,0c-2.39,0-3.84,1.51-3.84,4.2v5.8H146V374h1.48v2.23C148.18,374.76,149.63,374,151.73,374Z"/><path class="cls-3" d="M163.92,374v11.39h-1.47v-2.25a4.92,4.92,0,0,1-4.39,2.36,5.79,5.79,0,0,1,0-11.58,5,5,0,0,1,4.33,2.25V374Zm-1.51,5.7a4.24,4.24,0,1,0-4.22,4.44A4.16,4.16,0,0,0,162.41,379.74Z"/><path class="cls-3" d="M180.51,382.68l.87,1a5.58,5.58,0,0,1-4.38,1.86,5.65,5.65,0,0,1-6-5.8,5.5,5.5,0,0,1,5.63-5.78,5.37,5.37,0,0,1,5.46,5.43l-9.36,1.82a4.22,4.22,0,0,0,4.29,3A4.41,4.41,0,0,0,180.51,382.68Zm-8-3.05a3.77,3.77,0,0,0,0,.48l8-1.56a3.87,3.87,0,0,0-3.92-3.27A4.06,4.06,0,0,0,172.5,379.63Z"/><path class="cls-3" d="M184.37,382.27V369.36h1.54v12.78c0,1.34.62,2.08,1.9,2.08a2.88,2.88,0,0,0,1-.19l.11,1.27a4.37,4.37,0,0,1-1.39.24A3,3,0,0,1,184.37,382.27Z"/><path class="cls-3" d="M193.42,384.13l.69-1.21a6.85,6.85,0,0,0,4,1.28c2.17,0,3.06-.74,3.06-1.86,0-3-7.39-.63-7.39-5.14,0-1.86,1.61-3.24,4.51-3.24a7.75,7.75,0,0,1,4,1.06l-.68,1.23a5.82,5.82,0,0,0-3.35-1c-2.06,0-3,.8-3,1.88,0,3.08,7.38.76,7.38,5.13,0,2-1.73,3.25-4.69,3.25A7.62,7.62,0,0,1,193.42,384.13Z"/><path class="cls-3" d="M213.08,382.68l.87,1a5.57,5.57,0,0,1-4.37,1.86,5.66,5.66,0,0,1-6-5.8,5.5,5.5,0,0,1,5.63-5.78,5.37,5.37,0,0,1,5.46,5.43l-9.36,1.82a4.23,4.23,0,0,0,4.29,3A4.41,4.41,0,0,0,213.08,382.68Zm-8-3.05a3.77,3.77,0,0,0,0,.48l8-1.56a3.87,3.87,0,0,0-3.92-3.27A4.06,4.06,0,0,0,205.07,379.63Z"/><path class="cls-3" d="M215.79,379.74a5.61,5.61,0,0,1,5.87-5.78,5,5,0,0,1,4.46,2.25L225,377a3.86,3.86,0,0,0-3.31-1.69,4.44,4.44,0,0,0,0,8.88,3.85,3.85,0,0,0,3.31-1.67l1.15.78a5,5,0,0,1-4.46,2.25A5.62,5.62,0,0,1,215.79,379.74Z"/><path class="cls-3" d="M233.7,384.74a3.55,3.55,0,0,1-2.38.8,3,3,0,0,1-3.34-3.31V371.55h1.54V374H233v1.3h-3.44v6.8c0,1.34.67,2.08,1.95,2.08a2.5,2.5,0,0,0,1.69-.58Z"/><path class="cls-3" d="M234.07,379.74a5.79,5.79,0,1,1,5.8,5.8A5.6,5.6,0,0,1,234.07,379.74Zm10,0a4.24,4.24,0,1,0-4.23,4.44A4.15,4.15,0,0,0,244.1,379.74Z"/><path class="cls-3" d="M253.67,374v1.49l-.37,0c-2.38,0-3.83,1.51-3.83,4.2v5.8h-1.54V374h1.47v2.23C250.12,374.76,251.57,374,253.67,374Z"/><path class="cls-3" d="M272.1,379.74a5.52,5.52,0,0,1-5.68,5.8,5,5,0,0,1-4.33-2.25v6.34h-1.54V374H262v2.25a5,5,0,0,1,4.39-2.33A5.51,5.51,0,0,1,272.1,379.74Zm-1.54,0a4.25,4.25,0,1,0-4.25,4.44A4.2,4.2,0,0,0,270.56,379.74Z"/><path class="cls-3" d="M284.64,374v11.39h-1.48v-2.08a4.52,4.52,0,0,1-4.09,2.19c-2.9,0-4.81-1.62-4.81-4.89V374h1.54v6.46c0,2.42,1.26,3.66,3.42,3.66,2.38,0,3.88-1.54,3.88-4.14v-6Zm-5.07-1.75h-1.52l3-2.69h2.06Z"/><path class="cls-3" d="M299.62,379.74a5.52,5.52,0,0,1-5.67,5.8,4.93,4.93,0,0,1-4.4-2.36v2.25h-1.47V369.36h1.54v6.85A5,5,0,0,1,294,374,5.5,5.5,0,0,1,299.62,379.74Zm-1.54,0a4.25,4.25,0,1,0-4.24,4.44A4.18,4.18,0,0,0,298.08,379.74Z"/><path class="cls-3" d="M301.89,382.27V369.36h1.54v12.78c0,1.34.63,2.08,1.91,2.08a2.88,2.88,0,0,0,1-.19l.11,1.27a4.41,4.41,0,0,1-1.39.24A3,3,0,0,1,301.89,382.27Z"/><path class="cls-3" d="M307.37,370.45a1.11,1.11,0,0,1,1.13-1.09,1.1,1.1,0,1,1,0,2.19A1.12,1.12,0,0,1,307.37,370.45Zm.35,3.59h1.54v11.39h-1.54Z"/><path class="cls-3" d="M311.53,379.74A5.61,5.61,0,0,1,317.4,374a5,5,0,0,1,4.46,2.25l-1.15.78a3.86,3.86,0,0,0-3.31-1.69,4.44,4.44,0,0,0,0,8.88,3.85,3.85,0,0,0,3.31-1.67l1.15.78a5,5,0,0,1-4.46,2.25A5.62,5.62,0,0,1,311.53,379.74Z"/><path class="cls-3" d="M322.66,379.74a5.8,5.8,0,1,1,5.81,5.8A5.6,5.6,0,0,1,322.66,379.74Zm10,0a4.24,4.24,0,1,0-4.22,4.44A4.15,4.15,0,0,0,332.69,379.74Z"/><path class="cls-4" d="M46.4,313.89a13.6,13.6,0,0,1,1.11-5.49,13.86,13.86,0,0,1,3-4.42A14.39,14.39,0,0,1,55,301a14.11,14.11,0,0,1,11,0,14.05,14.05,0,0,1,7.42,7.41,13.6,13.6,0,0,1,1.11,5.49v12.93h-6v-1.45a13.33,13.33,0,0,1-8,2.53,15,15,0,0,1-5.8-1.08,12.84,12.84,0,0,1-4.42-3,13.5,13.5,0,0,1-2.84-4.45A14.84,14.84,0,0,1,46.4,313.89Zm6,0A7.68,7.68,0,0,0,53,317a8.52,8.52,0,0,0,1.73,2.55,8.29,8.29,0,0,0,2.56,1.72,7.68,7.68,0,0,0,3.12.64,8.18,8.18,0,0,0,3.13-.59,7.62,7.62,0,0,0,2.56-1.67,8.27,8.27,0,0,0,1.73-2.55,7.91,7.91,0,0,0,.64-3.22,7.68,7.68,0,0,0-.64-3.12,8.27,8.27,0,0,0-1.73-2.55,8.41,8.41,0,0,0-2.56-1.72,7.95,7.95,0,0,0-6.25,0A8.1,8.1,0,0,0,53,310.77,7.68,7.68,0,0,0,52.37,313.89Z"/><path class="cls-4" d="M115.26,311.62a5.53,5.53,0,0,0-.44-2.16,5.59,5.59,0,0,0-1.21-1.8,6,6,0,0,0-1.8-1.24,5.35,5.35,0,0,0-2.22-.46,5,5,0,0,0-2.21.49,6.25,6.25,0,0,0-1.81,1.26,6.12,6.12,0,0,0-1.23,1.8,5.08,5.08,0,0,0-.46,2.11v15.2h-6V301.07h6v1.49a6.93,6.93,0,0,1,2.49-2,7.37,7.37,0,0,1,3.22-.7,11.21,11.21,0,0,1,4.51.93,12.41,12.41,0,0,1,3.76,2.52,11.83,11.83,0,0,1,2.55,3.74,11.26,11.26,0,0,1,.93,4.55v15.2h-6.08Z"/><path class="cls-4" d="M144.51,313.89a13.6,13.6,0,0,1,1.11-5.49,14,14,0,0,1,3-4.42,14.44,14.44,0,0,1,4.46-3,14.11,14.11,0,0,1,11,0,14.05,14.05,0,0,1,7.42,7.41,13.77,13.77,0,0,1,1.1,5.49v12.93h-6v-1.45a13.36,13.36,0,0,1-8,2.53,14.93,14.93,0,0,1-5.79-1.08,13,13,0,0,1-4.43-3,13.47,13.47,0,0,1-2.83-4.45A14.84,14.84,0,0,1,144.51,313.89Zm6,0a7.68,7.68,0,0,0,.64,3.12,8.52,8.52,0,0,0,1.73,2.55,8.41,8.41,0,0,0,2.56,1.72,7.72,7.72,0,0,0,3.13.64,8.17,8.17,0,0,0,3.12-.59,7.42,7.42,0,0,0,2.56-1.67,8.27,8.27,0,0,0,1.73-2.55,7.92,7.92,0,0,0,.65-3.22,7.68,7.68,0,0,0-.65-3.12,8.27,8.27,0,0,0-1.73-2.55,8.17,8.17,0,0,0-2.56-1.72,7.95,7.95,0,0,0-6.25,0,8.41,8.41,0,0,0-2.56,1.72,8.27,8.27,0,0,0-1.73,2.55A7.68,7.68,0,0,0,150.49,313.89Z"/><path class="cls-4" d="M196.27,290.76h6.08v36.06h-6.08Z"/><path class="cls-4" d="M244,301.07h6v15.34a13.66,13.66,0,0,1-.52,3.79,10.8,10.8,0,0,1-8.18,7.7V337h-6v-9.17a13.06,13.06,0,0,1-3.55-1.75,13.69,13.69,0,0,1-2.76-2.6,11.57,11.57,0,0,1-1.8-3.27,11.31,11.31,0,0,1-.64-3.82V301.07h6.07v15.34a5.67,5.67,0,0,0,.44,2.22,5.59,5.59,0,0,0,1.21,1.8,6,6,0,0,0,1.81,1.24,5.27,5.27,0,0,0,2.21.46,5.77,5.77,0,0,0,4-1.65,6,6,0,0,0,1.23-1.8,5.31,5.31,0,0,0,.47-2.21Z"/><path class="cls-4" d="M274.2,307v-6h2.37V290.76h6v10.31h6v6h-6v19.78h-6V307Z"/><path class="cls-4" d="M310.82,292.36a3.7,3.7,0,0,1,1.08-2.73,3.57,3.57,0,0,1,2.63-1.08,3.69,3.69,0,0,1,3.81,3.81,3.58,3.58,0,0,1-1.08,2.63,3.73,3.73,0,0,1-2.73,1.08,3.69,3.69,0,0,1-3.71-3.71Zm.67,8.71h6.07v25.75h-6.07Z"/><path class="cls-4" d="M346.71,313.89a7.68,7.68,0,0,0,.65,3.12,8.06,8.06,0,0,0,4.27,4.27,7.68,7.68,0,0,0,3.12.64,8.74,8.74,0,0,0,3.66-.74,6.51,6.51,0,0,0,2.67-2.19h6.7a16.14,16.14,0,0,1-2.39,4,13.74,13.74,0,0,1-3.12,2.78,12.91,12.91,0,0,1-3.61,1.59,14.63,14.63,0,0,1-3.91.52,13.56,13.56,0,0,1-5.48-1.11,14.12,14.12,0,0,1-4.44-3,14,14,0,0,1,0-19.82,14.12,14.12,0,0,1,4.44-3,13.56,13.56,0,0,1,5.48-1.11,15.44,15.44,0,0,1,3.84.49,12.92,12.92,0,0,1,3.65,1.57,13.88,13.88,0,0,1,3.17,2.76,14.64,14.64,0,0,1,2.42,4h-6.75a6.41,6.41,0,0,0-2.78-2.22,9.46,9.46,0,0,0-3.55-.66,7.68,7.68,0,0,0-3.12.64,8.49,8.49,0,0,0-2.55,1.72,8.25,8.25,0,0,0-1.72,2.55A7.68,7.68,0,0,0,346.71,313.89Z"/><path class="cls-4" d="M401.67,319.61a3.82,3.82,0,0,0-.1-.9,1.71,1.71,0,0,0-.49-.83,4.83,4.83,0,0,0-1.11-.77,11.73,11.73,0,0,0-2-.8l-2.88-.88a9.37,9.37,0,0,1-4.28-2.6,6.6,6.6,0,0,1-1.8-4.76,7,7,0,0,1,.75-3.19,8.2,8.2,0,0,1,2-2.6,9.52,9.52,0,0,1,2.94-1.75,9.74,9.74,0,0,1,3.53-.65,8,8,0,0,1,3.71.8,8.67,8.67,0,0,1,2.57,2,8.48,8.48,0,0,1,1.57,2.49,8.93,8.93,0,0,1,.65,2.43h-6a4.24,4.24,0,0,0-.2-.68,2.94,2.94,0,0,0-.47-.79,2.59,2.59,0,0,0-2.11-1,3.74,3.74,0,0,0-2.11.62,2,2,0,0,0-.93,1.81,1.63,1.63,0,0,0,.39,1.08,3.19,3.19,0,0,0,1,.77,6.39,6.39,0,0,0,1.26.51c.44.14.86.28,1.23.42l2.84,1a10.37,10.37,0,0,1,4.5,3,8,8,0,0,1,1.73,5.41,7.44,7.44,0,0,1-.8,3.48,7.81,7.81,0,0,1-2.14,2.57,9.49,9.49,0,0,1-3.09,1.62,11.76,11.76,0,0,1-3.65.57,9.62,9.62,0,0,1-3.71-.72,9.76,9.76,0,0,1-3.07-2,9.36,9.36,0,0,1-2.08-3,9.21,9.21,0,0,1-.78-3.81h6a5.12,5.12,0,0,0,.21,1.44,3.63,3.63,0,0,0,.64,1.29,3.44,3.44,0,0,0,2.86,1.34,3.44,3.44,0,0,0,2.5-.93A2.73,2.73,0,0,0,401.67,319.61Z"/><path class="cls-2" d="M32.77,127.74H421.27a0,0,0,0,1,0,0v4a8.58,8.58,0,0,1-8.58,8.58H39.9a7.12,7.12,0,0,1-7.12-7.12v-5.41a0,0,0,0,1,0,0Z"/><path class="cls-2" d="M59.74,116.81a1.29,1.29,0,0,0,.57,2.44H394.13a1.29,1.29,0,0,0,.57-2.44l-164-80.63a7.78,7.78,0,0,0-6.85,0Z"/><path class="cls-2" d="M226.26,10.19,11.86,115.31a2.07,2.07,0,0,0,.91,3.94h14.1a2.14,2.14,0,0,0,1-.22L226.25,21.31a2.22,2.22,0,0,1,1.95,0L426.61,119a2.19,2.19,0,0,0,1,.22h14.16a2.06,2.06,0,0,0,.9-3.92L228.19,10.19A2.18,2.18,0,0,0,226.26,10.19Z"/><path class="cls-3" d="M94.27,211.46v55.61l-1.39.41a147.06,147.06,0,0,1-39.51,5.41c-27.09,0-43.25-13.43-43.25-36V190.5c0-22.52,16.16-36,43.25-36a206.69,206.69,0,0,1,36.45,3.54l1.8.35L88.06,184l-2-.31a267.54,267.54,0,0,0-32.74-2.65c-9.92,0-14,3.85-14,13.28v38.25c0,9.65,4.32,14,14,14a102.71,102.71,0,0,0,13.15-.77V211.46Z"/><path class="cls-3" d="M165.31,154.54c-33.65,0-45.63,18.58-45.63,36v46.41c0,17.4,12,36,45.63,36,32,0,44.41-16.8,45.55-33.41.08-.85.1-1.72.1-2.57V190.5C211,173.12,199,154.54,165.31,154.54Zm0,92.33c-10.09,0-15.45-3.35-16.24-10.21a14.54,14.54,0,0,1-.12-1.92V192.67c0-8.16,5.36-12.12,16.36-12.12s16.38,4,16.38,12.12v42.07a14.13,14.13,0,0,1-.49,3.87C179.66,244.16,174.42,246.87,165.31,246.87Z"/><polygon class="cls-3" points="333.12 154.54 313.73 224.17 310.37 236.25 300.19 272.8 261.02 272.8 251.7 239.33 248.8 228.91 228.09 154.54 258.22 154.54 277.34 227.44 280.18 238.26 280.61 239.85 281.03 238.22 283.99 226.95 303 154.54 333.12 154.54"/><polygon class="cls-3" points="444.29 154.54 444.29 181.28 413.97 181.28 413.97 272.8 384.69 272.8 384.69 181.28 354.37 181.28 354.37 154.54 444.29 154.54"/><path class="cls-5" d="M86.11,183.7a267.54,267.54,0,0,0-32.74-2.65c-9.92,0-14,3.85-14,13.28V221c-10.21-2.28-20-4.72-29.27-7.35V190.5c0-22.52,16.16-36,43.25-36a206.69,206.69,0,0,1,36.45,3.54l1.8.35L88.06,184Z"/><path class="cls-6" d="M66.52,211.46H94.27v19.3c-9.49-1.33-18.76-2.8-27.75-4.41Z"/><path class="cls-7" d="M211,190.5v46.41c0,.85,0,1.72-.1,2.57q-15-.22-29.66-.87a14.13,14.13,0,0,0,.49-3.87V192.67c0-8.16-5.36-12.12-16.38-12.12s-16.36,4-16.36,12.12v42.07a14.54,14.54,0,0,0,.12,1.92q-15-1.14-29.39-2.75V190.5c0-17.38,12-36,45.63-36S211,173.12,211,190.5Z"/><path class="cls-8" d="M277.34,227.44l2.84,10.82c-9.36.49-18.87.85-28.48,1.07l-2.9-10.42-20.71-74.37h30.13Z"/><path class="cls-9" d="M303,154.54h30.12l-19.39,69.63-3.36,12.08q-14.42,1.23-29.34,2L284,227Z"/><path class="cls-10" d="M444.28,154.54v26.74H414v39.91q-14.1,3.1-29.28,5.72V181.28H354.37V154.54Z"/></g></g></svg>